<?xml version="1.0" encoding="UTF-8" standalone="no"?>
<!-- Created with Inkscape (http://www.inkscape.org/) -->

<svg
   width="80.962502mm"
   height="6.3525901mm"
   viewBox="0 0 80.962502 6.3525901"
   version="1.1"
   id="svg1"
   xml:space="preserve"
   xmlns="http://www.w3.org/2000/svg"
   xmlns:svg="http://www.w3.org/2000/svg"><defs
     id="defs1" /><g
     id="layer1"
     transform="translate(-1.3229167,-2.6453165)"><g
       id="g193"
       transform="translate(18.256216,0.00207278)"><path
         id="path192"
         style="fill:#000000;stroke-width:0;stroke-linecap:round;paint-order:stroke fill markers"
         d="m 37.306284,2.6437606 v 0.00207 C 36.943031,2.6454138 36.60495,2.8313331 36.410731,3.138304 36.304779,3.3072416 36.248707,3.5026791 36.248984,3.7020939 h -10e-4 v 5.0270833 c 0,0.1461251 0.118458,0.2645834 0.264583,0.2645834 h 0.529167 c 0.146126,8e-7 0.264584,-0.118458 0.264583,-0.2645834 v -3.96875 -0.79375 c -4e-6,-0.1461244 0.118457,-0.2645833 0.264583,-0.2645833 h 0.79375 1.058334 0.710034 1.671216 c 0.438376,0 0.79375,0.355374 0.79375,0.79375 0,0.438376 -0.355374,0.79375 -0.79375,0.79375 h -1.671216 -0.445451 c -0.661716,-3e-5 -1.273178,0.3529791 -1.604036,0.9260417 -0.330843,0.5730367 -0.330843,1.2790466 0,1.8520833 0.330858,0.5730626 0.94232,0.9260717 1.604036,0.9260417 H 42.3334 c 0.146126,8e-7 0.264584,-0.1184575 0.264584,-0.2645834 V 8.2000106 c 0,-0.1461259 -0.118458,-0.2645842 -0.264584,-0.2645834 h -2.645833 c -0.476656,0 -0.793752,-0.3872987 -0.793752,-0.7937498 0,-0.4600913 0.371283,-0.7937502 0.793752,-0.7937502 h 2.116667 c 1.022877,-1e-6 1.852082,-0.8292064 1.852083,-1.8520833 -1.32e-4,-0.1225261 -0.01242,-0.2447367 -0.03669,-0.3648356 -0.0016,-0.00815 -0.0034,-0.01618 -0.0052,-0.024288 -0.01064,-0.050638 -0.0234,-0.1008085 -0.03824,-0.1503785 -0.004,-0.013073 -0.0087,-0.025808 -0.01292,-0.038757 -0.0148,-0.045409 -0.03135,-0.090229 -0.04961,-0.1343587 -0.0034,-0.00821 -0.0073,-0.016139 -0.01085,-0.024288 -0.02129,-0.049576 -0.04474,-0.098199 -0.07028,-0.1457276 -0.0017,-0.0032 -0.0039,-0.00611 -0.0057,-0.0093 -0.02573,-0.047002 -0.05349,-0.092865 -0.0832,-0.1374593 -0.0043,-0.00649 -0.009,-0.012691 -0.01344,-0.01912 -0.02971,-0.043529 -0.06126,-0.08577 -0.09457,-0.1266073 -0.0038,-0.00463 -0.008,-0.00884 -0.01189,-0.013436 -0.07004,-0.083651 -0.147342,-0.1609498 -0.230993,-0.2309936 -0.0046,-0.00385 -0.0088,-0.00808 -0.01344,-0.011886 -0.04084,-0.03331 -0.08308,-0.064861 -0.126608,-0.094568 -0.0064,-0.00443 -0.01315,-0.00961 -0.01964,-0.013953 -0.04736,-0.03169 -0.09616,-0.061177 -0.146244,-0.088367 -0.0015,-8.076e-4 -0.0032,-0.00126 -0.0047,-0.00207 -0.04604,-0.024718 -0.09311,-0.047476 -0.141076,-0.068213 -0.0093,-0.00406 -0.01848,-0.00849 -0.02791,-0.012402 -0.04296,-0.017653 -0.08657,-0.033685 -0.130741,-0.048059 -0.01362,-0.00447 -0.02707,-0.00927 -0.04082,-0.013436 -0.0489,-0.014613 -0.09838,-0.027198 -0.148312,-0.037724 -0.0093,-0.00199 -0.01854,-0.00435 -0.0279,-0.0062 -0.118948,-0.023684 -0.239935,-0.035627 -0.361218,-0.035657 z" /></g><path
       id="rect189"
       style="fill:#000000;stroke:none;stroke-width:0;stroke-linecap:round;paint-order:stroke fill markers"
       d="m 64.29375,4.2333333 a 2.3812499,2.3812499 0 0 0 -2.062406,1.190625 2.3812499,2.3812499 0 0 0 0,2.38125 2.3812499,2.3812499 0 0 0 2.062406,1.190625 h 1.5875 A 0.26458317,0.26458317 0 0 0 66.145833,8.73125 V 8.2020833 A 0.26458412,0.26458412 0 0 0 65.88125,7.9375 h -1.5875 A 1.3229169,1.3229169 0 0 1 62.970833,6.6145833 1.3229169,1.3229169 0 0 1 64.29375,5.2916667 h 2.116667 A 0.26458332,0.26458332 0 0 1 66.675,5.55625 V 7.9375 a 1.0583333,1.0583333 0 0 0 1.058333,1.0583333 h 0.264584 A 0.26458254,0.26458332 0 0 0 68.2625,8.73125 V 8.2020833 A 0.26458254,0.26458332 0 0 0 67.997917,7.9375 0.26458332,0.26458332 0 0 1 67.733333,7.6729167 v -2.38125 A 1.0583333,1.0583333 0 0 0 66.675,4.2333333 Z" /><g
       id="g38"
       transform="translate(-2.3812823,0.00207274)"><path
         id="path16"
         style="fill:#000000;stroke-width:0;stroke-linecap:round;paint-order:stroke fill markers"
         d="m 37.306249,2.6437608 v 0.00207 C 36.942996,2.645417 36.604915,2.8313325 36.410696,3.1383043 36.304741,3.3072425 36.248672,3.5026788 36.248949,3.7020942 h -0.001 v 5.0270833 c 0,0.1461254 0.118458,0.2645833 0.264583,0.2645833 h 0.529167 c 0.146126,8e-7 0.264584,-0.1184576 0.264583,-0.2645833 v -3.96875 -0.79375 c -4e-6,-0.146125 0.118454,-0.2645833 0.26458,-0.2645833 h 0.79375 1.058333 0.710035 1.671215 c 0.438376,1.7e-6 0.793749,0.3553747 0.79375,0.79375 -1e-6,0.4383753 -0.355374,0.7937483 -0.79375,0.79375 H 40.13298 39.422945 l -1.322916,-2.5e-6 c -0.146125,-3e-7 -0.264583,0.1184579 -0.264583,0.2645833 v 0.5291667 c -3e-6,0.1461264 0.118457,0.2645858 0.264583,0.2645833 l 1.322916,2.5e-6 h 0.710035 1.671215 c 0.438376,1.7e-6 0.793749,0.3553747 0.79375,0.79375 -1e-6,0.4383753 -0.355374,0.7937483 -0.79375,0.79375 H 40.13298 39.422945 l -1.322916,-2.5e-6 c -0.146125,-3e-7 -0.264583,0.1184579 -0.264583,0.2645833 V 8.729175 c 0,0.1461253 0.118458,0.2645832 0.264583,0.2645833 l 3.704166,2.5e-6 c 1.022879,2.5e-6 1.852086,-0.8292049 1.852084,-1.8520833 -2.94e-4,-0.4992014 -0.202093,-0.9771463 -0.559656,-1.3255005 0.356283,-0.3471015 0.557973,-0.8229253 0.559656,-1.3203328 2e-6,-1.0228782 -0.829205,-1.8520853 -1.852084,-1.8520834 z" /></g><path
       id="circle36"
       style="fill:#000000;stroke-width:0;stroke-linecap:round;paint-order:stroke fill markers"
       d="M 3.175,2.6458333 A 1.8520833,1.8520833 0 0 0 1.3229167,4.4979167 1.8520833,1.8520833 0 0 0 3.175,6.35 h 1.3229167 0.7100341 1.6712159 a 0.79375303,0.79375303 0 0 1 0.79375,0.79375 0.79375303,0.79375303 0 0 1 -0.79375,0.79375 H 5.2079508 4.4979167 1.5890503 a 0.26458332,0.26458332 0 0 0 -0.00155,0 A 0.26458332,0.26458332 0 0 0 1.322917,8.2020833 V 8.73125 a 0.26458332,0.26458332 0 0 0 0.264583,0.2645833 0.26458332,0.26458332 0 0 0 0.00155,0 H 6.8791667 A 1.8520825,1.8520825 0 0 0 8.73125,7.14375 1.8520825,1.8520825 0 0 0 6.8791667,5.2916667 H 5.55625 4.8462158 3.175 A 0.79375303,0.79375303 0 0 1 2.38125,4.4979167 0.79375303,0.79375303 0 0 1 3.175,3.7041667 H 4.8482829 5.55625 8.4666667 A 0.26458332,0.26458332 0 0 0 8.73125,3.4395833 V 2.9104167 A 0.26458332,0.26458332 0 0 0 8.4666667,2.6458333 Z" /><path
       id="path44"
       style="fill:#000000;stroke-width:0;stroke-linecap:round;paint-order:stroke fill markers"
       d="M 9.7895833,2.6453166 C 9.6434585,2.6453168 9.525,2.7637748 9.525,2.9098999 V 2.9104167 3.175 3.4395833 c 0,0.1461255 0.1184585,0.2645834 0.2645833,0.2645834 h 0.2645837 0.264583 c 0.146126,0 0.264584,-0.1184579 0.264583,-0.2645834 V 3.175 2.9104167 2.9098999 c 2e-6,-0.1461258 -0.118457,-0.2645848 -0.264583,-0.2645833 z m 0,1.5880167 A 0.26458332,0.26458332 0 0 0 9.525,4.4979167 a 0.26458332,0.26458332 0 0 1 0,5.167e-4 V 8.73125 A 0.26458192,0.26458192 0 0 0 9.7895833,8.9958333 H 10.31875 A 0.26458192,0.26458192 0 0 0 10.583333,8.73125 V 4.4984334 a 0.26458031,0.26458031 0 0 1 0,-5.167e-4 0.26458031,0.26458031 0 0 0 -0.264583,-0.2645834 z" /><path
       id="circle69"
       style="fill:#000000;stroke:none;stroke-width:0;stroke-linecap:round;paint-order:stroke fill markers"
       d="m 23.8125,4.2333333 a 2.3812499,2.3812499 0 0 0 -2.38125,2.38125 2.3812499,2.3812499 0 0 0 2.38125,2.38125 h 1.058333 A 2.3812499,2.3812499 0 0 0 27.00352,7.6729167 H 25.658382 A 1.32291,1.32291 0 0 1 24.870833,7.9375 H 23.8125 A 1.3229071,1.3229071 0 0 1 22.604305,7.14375 h 0.943612 2.534729 1.108976 a 2.3812499,2.3812499 0 0 0 0.06046,-0.5291667 2.3812499,2.3812499 0 0 0 -2.38125,-2.38125 z m 0,1.0583334 h 1.058333 a 1.32291,1.32291 0 0 1 1.211813,0.79375 h -3.478341 a 1.3229071,1.3229071 0 0 1 1.208195,-0.79375 z" /><path
       style="fill:#000000;stroke:none;stroke-width:0.264583px;stroke-linecap:butt;stroke-linejoin:miter;stroke-opacity:1"
       d="m 53.975,4.2333364 -5.291667,4.7625 -1.587532,0.00207 5.291699,-4.7645701 z"
       id="path113" /><path
       style="fill:#000000;stroke:none;stroke-width:0.264583px;stroke-linecap:butt;stroke-linejoin:miter;stroke-opacity:1"
       d="M 47.095801,4.2354091 52.3875,8.9958392 53.975,8.9958364 48.683333,4.2333391 Z"
       id="path114" /><path
       id="path115"
       style="fill:#000000;stroke:none;stroke-width:0;stroke-linecap:round;paint-order:stroke fill markers"
       d="m 30.162499,4.2333336 a 2.3812499,2.3812499 0 0 0 -2.38125,2.38125 v 2.1166667 a 0.26458031,0.26458332 0 0 0 0.264584,0.2645833 h 0.529166 A 0.26458469,0.26458332 0 0 0 28.839583,8.7312503 V 8.5906904 6.6145836 A 1.3229104,1.3229104 0 0 1 30.162499,5.291667 h 1.979724 0.66611 0.264583 A 0.26458332,0.26458031 0 0 0 33.337499,5.0270836 V 4.497917 A 0.26458332,0.26458469 0 0 0 33.072916,4.2333336 Z" /><path
       id="path121"
       style="fill:#000000;stroke:none;stroke-width:0;stroke-linecap:round;paint-order:stroke fill markers"
       d="m 13.758333,8.9958308 a 2.3812499,2.3812499 0 0 1 -2.38125,-2.38125 v -2.116667 a 0.26458031,0.26458332 0 0 1 0.264584,-0.264583 h 0.529166 a 0.26458469,0.26458332 0 0 1 0.264584,0.264583 v 0.14056 1.976107 a 1.3229104,1.3229104 0 0 0 1.322916,1.322917 h 1.979724 0.66611 0.264583 a 0.26458332,0.26458031 0 0 1 0.264583,0.264583 v 0.529167 a 0.26458332,0.26458469 0 0 1 -0.264583,0.264583 z" /><path
       id="circle130"
       style="fill:#000000;stroke-width:0;stroke-linecap:round;paint-order:stroke fill markers"
       d="m 73.289581,2.6458335 a 0.26458332,0.26458332 0 0 0 -0.264583,0.2645834 v 1.3229166 h -2.38125 a 2.3812499,2.3812499 0 0 0 -2.38125,2.38125 2.3812499,2.3812499 0 0 0 2.38125,2.38125 h 2.910417 0.264583 A 0.26458192,0.26458192 0 0 0 74.083331,8.7312502 V 2.9104169 a 0.26458031,0.26458031 0 0 1 0,-5.168e-4 0.26458031,0.26458031 0 0 0 -0.264583,-0.2640666 z m -2.645833,2.6458334 h 1.850533 0.266134 a 0.26458332,0.26458332 0 0 1 0.264583,0.2645833 v 2.1166667 a 0.26458135,0.26457751 0 0 1 -0.264583,0.2645833 h -0.266134 -1.850533 c -0.730627,5.5e-6 -1.322922,-0.5922891 -1.322917,-1.3229167 -5e-6,-0.7306274 0.59229,-1.3229221 1.322917,-1.3229166 z" /><path
       id="circle148"
       style="fill:#000000;stroke-width:0;stroke-linecap:round;paint-order:stroke fill markers"
       d="m 75.141667,2.6458333 c -0.146125,2e-7 -0.264584,0.1184583 -0.264584,0.2645834 V 2.9109334 3.175 3.4401001 c 0,0.1461255 0.118459,0.2645833 0.264584,0.2645833 h 0.529166 c 0.146126,0 0.264585,-0.1184578 0.264584,-0.2645833 V 3.175 2.9109334 2.9104167 c 2e-6,-0.1461258 -0.118458,-0.2645849 -0.264584,-0.2645834 H 75.40625 Z m 0,1.5875 a 0.26458332,0.26458332 0 0 0 -0.264584,0.2645834 0.26458332,0.26458332 0 0 1 0,5.167e-4 V 8.73125 a 0.26458192,0.26458192 0 0 0 0.264584,0.2645833 h 0.529166 A 0.26458192,0.26458192 0 0 0 75.935417,8.73125 V 4.4984334 a 0.26458031,0.26458031 0 0 1 0,-5.167e-4 0.26458031,0.26458031 0 0 0 -0.264584,-0.2645834 z" /><path
       style="fill:#000000;stroke:none;stroke-width:0.264583px;stroke-linecap:butt;stroke-linejoin:miter;stroke-opacity:1"
       d="M 21.695834,4.2335906 18.25625,8.9960935 17.902896,7.6536215 20.372917,4.2335921 Z"
       id="path187" /><path
       style="fill:#000000;stroke:none;stroke-width:0.264583px;stroke-linecap:butt;stroke-linejoin:miter;stroke-opacity:1"
       d="M 14.816666,4.233592 18.25625,8.9960949 18.831773,7.9612413 16.139583,4.2335948 Z"
       id="path188" /><path
       id="path197"
       style="fill:#000000;stroke:none;stroke-width:0;stroke-linecap:round;paint-order:stroke fill markers"
       d="m 78.845837,4.2335998 a 2.3812499,2.3812499 0 0 0 -2.38125,2.3812496 2.3812499,2.3812499 0 0 0 2.38125,2.38125 h 1.058333 a 2.3812499,2.3812499 0 0 0 2.38125,-2.38125 2.3812499,2.3812499 0 0 0 -2.38125,-2.3812496 z m 0,1.0583334 h 1.058333 a 1.32291,1.32291 0 0 1 1.322917,1.3229162 1.32291,1.32291 0 0 1 -1.322917,1.322917 H 78.845837 A 1.3229071,1.3229071 0 0 1 77.52292,6.6148494 1.3229071,1.3229071 0 0 1 78.845837,5.2919332 Z" /><path
       id="path199"
       style="fill:#000000;stroke:none;stroke-width:0;stroke-linecap:round;paint-order:stroke fill markers"
       d="m 44.185416,4.2333339 a 2.3812499,2.3812499 0 0 0 -2.38125,2.3812496 2.3812499,2.3812499 0 0 0 2.38125,2.38125 h 1.058333 a 2.3812499,2.3812499 0 0 0 2.38125,-2.38125 2.3812499,2.3812499 0 0 0 -2.38125,-2.3812496 z m 0,1.0583334 h 1.058333 a 1.32291,1.32291 0 0 1 1.322917,1.3229162 1.32291,1.32291 0 0 1 -1.322917,1.322917 h -1.058333 a 1.3229071,1.3229071 0 0 1 -1.322917,-1.322917 1.3229071,1.3229071 0 0 1 1.322917,-1.3229162 z" /></g></svg>
